<svg xmlns="http://www.w3.org/2000/svg" preserveAspectRatio="xMidYMid" width="66" height="80" viewBox="0 0 66 80"><defs><style>.cls-1{fill:#fff;filter:url(#filter-chain-1);fill-rule:evenodd}</style><filter id="filter-chain-1" filterUnits="userSpaceOnUse"><feOffset dy="2" in="SourceAlpha"/><feGaussianBlur stdDeviation="2.449" result="dropBlur"/><feFlood flood-opacity=".22"/><feComposite operator="in" in2="dropBlur" result="dropShadowComp"/><feComposite in="SourceGraphic" result="shadowed"/><feFlood flood-color="#9c3"/><feComposite operator="in" in2="SourceGraphic"/><feBlend in2="shadowed" result="solidFill"/><feOffset dy="-2" in="SourceAlpha"/><feGaussianBlur result="innerShadowBlur"/><feFlood flood-opacity=".2"/><feComposite operator="out" in2="innerShadowBlur"/><feComposite operator="in" in2="SourceAlpha"/><feBlend in2="solidFill" result="innerShadow"/></filter></defs><path d="M59.523 30.442a1.48 1.48 0 0 1-.492 1.089l-5.872 5.285 1.416 7.376c.045.106.076.221.096.339.127.815-.446 1.576-1.282 1.7l-.03.005c-.018.002-.034.005-.051.005l-7.933.906-.111.229 7.603 18.251a1.47 1.47 0 0 1-.314 1.546 1.546 1.546 0 0 1-1.553.412l-6.131-1.787-4.954 5.228a1.55 1.55 0 0 1-1.462.44 1.507 1.507 0 0 1-1.119-1.016l-3.716-10.771-2.698 13.597a1.51 1.51 0 0 1-1.08 1.167 1.584 1.584 0 0 1-.532.054 1.541 1.541 0 0 1-1.019-.482l-4.315-4.616-7.001 1.993a1.546 1.546 0 0 1-1.485-.356 1.47 1.47 0 0 1-.426-1.436l5.836-21.565-.489-1.041-7.918-1a1.537 1.537 0 0 1-1.046-.611 1.466 1.466 0 0 1-.257-1.164l1.571-7.649-5.803-5.357a1.472 1.472 0 0 1 .013-2.182l5.872-5.287-1.473-7.666c-.078-.408.02-.827.271-1.161a1.479 1.479 0 0 1 1.054-.598l7.93-.904 3.42-7.048c.182-.373.515-.657.919-.783a1.563 1.563 0 0 1 1.211.122l6.959 3.822L40.14 5.79a1.568 1.568 0 0 1 1.214-.106c.402.13.731.418.907.794l3.33 7.09 7.92 1c.418.054.798.275 1.045.611.246.337.338.758.255 1.164l-1.57 7.648 5.803 5.358c.309.284.482.681.479 1.093zM34.955 54.206l4.52 12.889 3.797-4.007a1.548 1.548 0 0 1 1.558-.417l4.09 1.191-5.422-12.846-1.542 3.178a1.513 1.513 0 0 1-1.152.837c-.334.05-.679-.01-.977-.175l-4.736-2.601-.321 1.619c.069.106.145.207.185.332zM18.667 67.801l5.366-1.528a1.548 1.548 0 0 1 1.556.427l2.877 3.076 3.677-18.355-6.283 3.351a1.556 1.556 0 0 1-1.214.106 1.517 1.517 0 0 1-.907-.793l-.842-1.792-4.23 15.508zm31.86-42.207a1.473 1.473 0 0 1-.448-1.379l1.413-6.89-7.134-.902a1.52 1.52 0 0 1-1.19-.858l-3.001-6.387-6.313 3.368a1.566 1.566 0 0 1-1.482-.01l-6.269-3.444-3.082 6.35a1.466 1.466 0 0 1-1.203.843l-7.144.815L16 24.006a1.472 1.472 0 0 1-.466 1.373l-5.29 4.763 5.229 4.827c.382.353.552.873.449 1.378l-1.416 6.89 7.134.902c.521.066.972.389 1.192.857l3.001 6.388 6.314-3.367a1.55 1.55 0 0 1 1.48.009l6.269 3.443 3.081-6.349c.227-.465.737-.806 1.204-.842l7.146-.815L50 36.554a1.474 1.474 0 0 1 .466-1.374l5.288-4.76-5.227-4.826zM33.25 42.186c-6.698 0-12.146-5.325-12.146-11.868s5.448-11.866 12.146-11.866c6.696 0 12.144 5.323 12.144 11.866 0 6.543-5.448 11.868-12.144 11.868zm0-20.748c-5.012 0-9.09 3.984-9.09 8.88 0 4.897 4.078 8.882 9.09 8.882s9.088-3.985 9.088-8.882c0-4.896-4.076-8.88-9.088-8.88z" class="cls-1"/></svg>