<svg xmlns="http://www.w3.org/2000/svg" preserveAspectRatio="xMidYMid" width="27" height="27" viewBox="0 0 27 27"><defs><style>.cls-1{fill:#7e7f84;filter:url(#color-overlay-1);fill-rule:evenodd}</style><filter id="color-overlay-1" filterUnits="userSpaceOnUse"><feFlood/><feComposite operator="in" in2="SourceGraphic"/><feBlend in2="SourceGraphic" result="solidFill"/></filter></defs><path d="M26.943 8.085l-4.032 12.236a.843.843 0 0 1-.792.573H10.68a.845.845 0 0 1-.81-.631L5.187 2.578c-.239-.849-.589-.849-.704-.849H.854A.854.854 0 0 1 .012.864c0-.478.377-.865.842-.865h3.629c.521 0 1.789.205 2.323 2.105l1.361 4.824h17.984c.274 0 .53.137.688.367.157.23.196.525.104.79zM8.64 8.657l2.678 10.507h10.209l3.427-10.507H8.64zm3.591 13.988c1.17 0 2.119.975 2.119 2.178 0 1.202-.949 2.176-2.119 2.176-1.17 0-2.118-.974-2.118-2.176 0-1.203.948-2.178 2.118-2.178zm7.627 0c1.17 0 2.118.975 2.118 2.178 0 1.202-.948 2.176-2.118 2.176s-2.119-.974-2.119-2.176c0-1.203.949-2.178 2.119-2.178z" class="cls-1"/></svg>