<svg xmlns="http://www.w3.org/2000/svg" preserveAspectRatio="xMidYMid" width="58" height="80" viewBox="0 0 58 80"><defs><style>.cls-1{fill:#fff;filter:url(#filter-chain-1);fill-rule:evenodd}</style><filter id="filter-chain-1" filterUnits="userSpaceOnUse"><feOffset dy="2" in="SourceAlpha"/><feGaussianBlur stdDeviation="2.449" result="dropBlur"/><feFlood flood-opacity=".22"/><feComposite operator="in" in2="dropBlur" result="dropShadowComp"/><feComposite in="SourceGraphic" result="shadowed"/><feFlood flood-color="#9c3"/><feComposite operator="in" in2="SourceGraphic"/><feBlend in2="shadowed" result="solidFill"/><feOffset dy="-2" in="SourceAlpha"/><feGaussianBlur result="innerShadowBlur"/><feFlood flood-opacity=".2"/><feComposite operator="out" in2="innerShadowBlur"/><feComposite operator="in" in2="SourceAlpha"/><feBlend in2="solidFill" result="innerShadow"/></filter></defs><path d="M51.165 54.086H35.553c.005 2.112.011 1.328.016 2.719-.008.54-.021 1.545-.04 2.584.03 7.475-.561 9.083-3.604 12.127-2.047 2.05-4.091 2.972-8.667 2.972l-.392-.002C3.977 73.767 5.533 55.418 5.533 50.843v-2.817c0-2.754 2.223-4.994 4.957-4.994l.271.016v-3.853c0-2.753 2.223-4.994 4.957-4.994h.356c.525.01.877.002 1.211.005v-5.313c0-2.754 2.222-4.994 4.956-4.994h1.531V6.813a1.31 1.31 0 0 1 1.305-1.314h26.088a1.31 1.31 0 0 1 1.305 1.314v45.959a1.31 1.31 0 0 1-1.305 1.314zM35.159 32.525c.779 0 1.177-.764 1.497-1.829h-3.132c.139 1.126.758 1.829 1.635 1.829zM25.077 54.233a1.31 1.31 0 0 1-1.305-1.314v-16.14l-.047-10.252h-1.484a2.36 2.36 0 0 0-2.348 2.366l.016 18.124c0 .04-.004.108-.008.147a1.308 1.308 0 0 1-1.299 1.195h-.018a1.307 1.307 0 0 1-1.284-1.232 4.604 4.604 0 0 1-.015-.327v-9.966c-.313-.003-.68-.008-1.174-.004h-.393a2.36 2.36 0 0 0-2.348 2.365v12.387a1.326 1.326 0 0 1-1.427 1.319 1.302 1.302 0 0 1-1.186-1.298v-5.927l-.278-.016c-1.284 0-2.337 1.062-2.337 2.366l.001 1.903-.001 1.012v.024c.028 5.167-1.159 20.286 14.787 20.893 3.963.076 5.587-.635 7.158-2.207 2.388-2.391 2.86-3.645 2.833-10.282.019-1.026.032-1.974.04-2.544-.004-1.275-.01-.306-.015-2.203-.004-.044-.025-.082-.025-.127v-1.716l-.002-.007.002-.006V37.917c0-1.94-1.568-3.52-3.494-3.52-1.926 0-3.045 1.58-3.045 3.52v15.002c0 .726-.583 1.314-1.304 1.314zm24.784-42.047c-.034.001-.064.016-.099.016-2.12 0-3.838-1.731-3.838-3.867.104-.077.21-.139.315-.208H29.912c.105.069.211.131.316.208 0 2.136-1.719 3.867-3.839 3.867l-.008-.001v20.488a5.438 5.438 0 0 1 1.465-.688c.938-.312 1.472-.285 2.424-.146a6.036 6.036 0 0 1 1.568.468 5.942 5.942 0 0 1-.37-1.627h-1.835v-1.608h1.856c.179-1.628.817-2.995 1.815-4.041l1.736 1.327c-.758.764-1.217 1.729-1.417 2.714h3.452c.538-2.091 1.316-4.362 3.99-4.362 2.035 0 3.83 1.347 4.09 4.362h1.795v1.608h-1.795c-.16 2.07-.978 3.618-2.075 4.684l-1.816-1.327a5.763 5.763 0 0 0 1.796-3.357h-3.871c-.518 2.07-1.256 4.241-3.85 4.241-.217 0-.425-.028-.631-.064a6.08 6.08 0 0 1 .821 3.044v.058c-.042 1.238-.028 1.486 0 2.54v10.943h10.414c.102-2.045 1.765-3.675 3.819-3.675.035 0 .065.016.099.017V12.186zM39.608 29.088h3.472c-.2-1.387-1.018-1.95-1.796-1.95-.898 0-1.336.844-1.676 1.95zM8.148 50.836l-.001.03c.001-.136.001-.273.001-.03zm-.006.122c.003-.031.004-.062.005-.092-.001.115-.003.221-.005.092zm27.439 8.473c-.003-.309-.007-1.252-.012-2.626.003-.202.006-.348.008-.394.006-.163.008 3.506.004 3.02z" class="cls-1"/></svg>