<svg xmlns="http://www.w3.org/2000/svg" preserveAspectRatio="xMidYMid" width="71" height="81" viewBox="0 0 71 81"><defs><style>.cls-1{fill:#fff;filter:url(#filter-chain-1);fill-rule:evenodd}</style><filter id="filter-chain-1" filterUnits="userSpaceOnUse"><feOffset dy="2" in="SourceAlpha"/><feGaussianBlur stdDeviation="2.449" result="dropBlur"/><feFlood flood-opacity=".22"/><feComposite operator="in" in2="dropBlur" result="dropShadowComp"/><feComposite in="SourceGraphic" result="shadowed"/><feFlood flood-color="#9c3"/><feComposite operator="in" in2="SourceGraphic"/><feBlend in2="shadowed" result="solidFill"/><feOffset dy="-2" in="SourceAlpha"/><feGaussianBlur result="innerShadowBlur"/><feFlood flood-opacity=".2"/><feComposite operator="out" in2="innerShadowBlur"/><feComposite operator="in" in2="SourceAlpha"/><feBlend in2="solidFill" result="innerShadow"/></filter></defs><path d="M60.368 15.627h-.771v.004h-.003v31.701c0 2.389-1.968 4.332-4.386 4.332h-16.07c-.003 2.643-.009 7.835.003 7.231.034 8.214-.629 9.981-4.039 13.326-2.295 2.252-4.586 3.266-9.714 3.266l-.44-.003c-21.17-.789-19.426-20.953-19.426-25.98v-3.096c0-3.026 2.492-5.488 5.556-5.488l.304.018v-4.233c0-3.026 2.491-5.488 5.555-5.488h.4c.588.011.982.001 1.356.005v-5.838c0-3.026 2.492-5.488 5.555-5.488h1.716l.009.004v-4.269h-.007v-.004h-.371c-2.828 0-5.481-2.274-5.481-5.069 0-2.793 2.653-5.067 5.481-5.067h34.773c2.829 0 5.13 2.274 5.13 5.067 0 2.795-2.301 5.069-5.13 5.069zm-5.16 33.149c.806 0 1.462-.647 1.462-1.444V8.434h-5.849v40.342h4.387zm-29.244.947V34.05l-.053-11.266h-1.663c-1.45 0-2.631 1.167-2.631 2.6l.017 19.916a1.455 1.455 0 0 1-1.465 1.475h-.02a1.454 1.454 0 0 1-1.439-1.354 5.118 5.118 0 0 1-.017-.36V34.11c-.35-.003-.761-.009-1.315-.004h-.441c-1.45 0-2.631 1.166-2.631 2.599v13.611c0 .09-.009.179-.026.266a1.483 1.483 0 0 1-1.573 1.184c-.753-.07-1.329-.681-1.329-1.427v-6.513l-.312-.017c-1.439 0-2.62 1.166-2.62 2.599l.002 2.092c0 .054-.002.373-.002 1.112l.001.018-.001.008c.032 5.678-1.298 22.292 16.573 22.959 4.442.084 6.262-.698 8.022-2.425 2.677-2.627 3.206-4.006 3.176-11.299a199.42 199.42 0 0 0 0-7.242l-.002-.007.002-.007V35.3c0-2.132-1.758-3.868-3.917-3.868-2.158 0-3.412 1.736-3.412 3.868v16.485c0 .798-.654 1.444-1.462 1.444a1.452 1.452 0 0 1-1.462-1.444v-2.062zm2.933-27.852v7.68a6.109 6.109 0 0 1 1.633-.752c1.051-.343 1.65-.313 2.717-.161a6.85 6.85 0 0 1 1.757.515c1.938.957 2.081 1.299 3.216 2.802.579.985.921 2.123.921 3.345v.064c-.048 1.36-.032 1.632 0 2.791v10.621h8.774V8.434h-5.373c.569.198.982.719.982 1.348l.006 4.274c0 .798-.654 1.444-1.461 1.444h-2.912a1.453 1.453 0 0 1-1.462-1.444l-.007-4.274c0-.629.413-1.15.981-1.348h-9.772v.004h.008l-.002 7.193h-.006v6.24zM24.87 8.434c-1.188 0-2.153.954-2.153 2.127 0 1.173.965 2.128 2.153 2.128h1.096V8.438h.007v-.004H24.87zm35.933 0h-1.209v.004h.003v4.251h1.206c1.189 0 2.154-.955 2.154-2.128s-.965-2.127-2.154-2.127zM42.026 23.641a1.38 1.38 0 0 1 1.387 1.371v18.48a1.38 1.38 0 0 1-1.387 1.371 1.38 1.38 0 0 1-1.388-1.371v-18.48a1.38 1.38 0 0 1 1.388-1.371zM8.454 49.497l-.002.032c.001-.149.002-.299.002-.032zm-.007.133c.003-.033.004-.067.005-.101-.001.127-.003.243-.005.101zm30.752 9.312a771.52 771.52 0 0 1-.013-2.887c.035-2.213.001 1.427.013 2.887z" class="cls-1"/></svg>