<svg xmlns="http://www.w3.org/2000/svg" preserveAspectRatio="xMidYMid" width="118" height="74" viewBox="0 0 118 74"><defs><style>.cls-1{fill:#fff;filter:url(#filter-chain-1);fill-rule:evenodd}</style><filter id="filter-chain-1" filterUnits="userSpaceOnUse"><feOffset dy="2" in="SourceAlpha"/><feGaussianBlur stdDeviation="2.449" result="dropBlur"/><feFlood flood-opacity=".22"/><feComposite operator="in" in2="dropBlur" result="dropShadowComp"/><feComposite in="SourceGraphic" result="shadowed"/><feFlood flood-color="#9c3"/><feComposite operator="in" in2="SourceGraphic"/><feBlend in2="shadowed" result="solidFill"/><feOffset dy="-2" in="SourceAlpha"/><feGaussianBlur result="innerShadowBlur"/><feFlood flood-opacity=".2"/><feComposite operator="out" in2="innerShadowBlur"/><feComposite operator="in" in2="SourceAlpha"/><feBlend in2="solidFill" result="innerShadow"/></filter></defs><path d="M106.478 58.513h-1.349a14.11 14.11 0 0 0-.452-3.215h1.801c1.868 0 2.816-.947 2.816-2.813v-7.451c-.019-1.196-.79-1.683-2.544-2.501-.363-.17-.715-.875-1.039-1.048-1.819-.976-7.881-4.95-9.685-6.484-.961-.816-3.956-4.095-5.006-6.641-.431-1.046-2.392-4.437-4.287-7.716-2.017-3.487-4.102-7.094-5.061-9.076-1.375-2.844-2.072-2.844-3.754-2.844H59.964l-17.45 46.574h32.668a14.111 14.111 0 0 0-.453 3.215H40.202a1.61 1.61 0 0 1-1.509-2.166l18.642-49.79a1.608 1.608 0 0 1 1.509-1.049l18.861.001.213-.001c2.493 0 4.565.343 6.652 4.661.907 1.876 2.962 5.43 4.95 8.867 2.127 3.678 3.964 6.855 4.477 8.101.786 1.907 3.393 4.803 4.114 5.415 1.615 1.373 7.495 5.766 9.123 6.64.274.147.572.285.878.428 1.731.808 4.346 2.027 4.401 5.388v7.477c0 3.662-2.369 6.028-6.035 6.028zM7.122 16.625a1.608 1.608 0 0 1 0-3.215h43.324l-1.238 3.215H7.122zm3.314 9.646h34.067l-1.238 3.215H10.436a1.608 1.608 0 0 1 0-3.215zm3.313 12.761h24.85l-1.238 3.215H13.749a1.608 1.608 0 1 1 0-3.215zm45.5-.816a2.472 2.472 0 0 1-4.946 0 2.472 2.472 0 0 1 2.473-2.471 2.472 2.472 0 0 1 2.473 2.471zm3.194-25.36a1.607 1.607 0 0 1 1.517-1.073h12.802c.603 0 1.156.337 1.432.873l8.278 16.1a1.607 1.607 0 0 1-1.432 2.343h-.016l-26.659.044a1.607 1.607 0 0 1-1.501-2.142l5.579-16.145zm19.947 15l-6.61-12.858H65.099l-4.451 12.953 21.742-.095zm8.108 19.011c5.983 0 10.833 4.844 10.833 10.82s-4.85 10.821-10.833 10.821c-5.983 0-10.833-4.845-10.833-10.821s4.85-10.82 10.833-10.82zm-.004 17.835a7.016 7.016 0 0 0 7.021-7.013c0-3.873-3.143-7.012-7.021-7.012-3.877 0-7.021 3.139-7.021 7.012a7.017 7.017 0 0 0 7.021 7.013z" class="cls-1"/></svg>