<svg xmlns="http://www.w3.org/2000/svg" preserveAspectRatio="xMidYMid" width="73" height="78" viewBox="0 0 73 78"><defs><style>.cls-1{fill:#fff;filter:url(#filter-chain-1);fill-rule:evenodd}</style><filter id="filter-chain-1" filterUnits="userSpaceOnUse"><feOffset dy="2" in="SourceAlpha"/><feGaussianBlur stdDeviation="2.449" result="dropBlur"/><feFlood flood-opacity=".22"/><feComposite operator="in" in2="dropBlur" result="dropShadowComp"/><feComposite in="SourceGraphic" result="shadowed"/><feFlood flood-color="#9c3"/><feComposite operator="in" in2="SourceGraphic"/><feBlend in2="shadowed" result="solidFill"/><feOffset dy="-2" in="SourceAlpha"/><feGaussianBlur result="innerShadowBlur"/><feFlood flood-opacity=".2"/><feComposite operator="out" in2="innerShadowBlur"/><feComposite operator="in" in2="SourceAlpha"/><feBlend in2="solidFill" result="innerShadow"/></filter></defs><path d="M67.132 69.474c-.104 1.482-1.306 2.661-2.813 2.661l-.026-.001-.001.001H8.618l-.035-.032c-1.367-.081-2.437-1.115-2.617-2.454l-.149-.14V18.381c0-.731.495-1.032 1.162-1.121l.474-.24V8.525c0-.172.048-.329.097-.484a1.61 1.61 0 0 1-.029-1.014 1.612 1.612 0 0 1 1.547-1.154l54.892.001.011.001.013-.002c.037 0 .067.018.103.021.148.012.291.036.426.086.101.035.188.087.279.141a1.54 1.54 0 0 1 .435.375c.021.027.038.057.058.086.183.262.314.563.314.907v9.534l.451.238c.662.09 1.153.392 1.153 1.12v51.027l-.071.066zm-4.763-59.093l-4.285 2.678 4.285 2.26v-4.938zM9.048 20.452v48.451h54.925V20.452H9.048zm1.635-5.07l4.691-2.379-4.691-2.715v5.094zm3.093-6.277l4.788 2.588a1.614 1.614 0 0 1-.037 2.727l-5.4 2.8h47.054l-4.911-2.706a1.617 1.617 0 0 1-.097-2.633l4.339-2.775-45.736-.001zm34.27 23.271c-1.181 6.399-5.813 10.638-12.079 10.638-6.273 0-10.908-4.247-12.085-10.656a3.084 3.084 0 0 1-1.632-2.71 3.096 3.096 0 0 1 3.09-3.094 3.097 3.097 0 0 1 3.093 3.094 3.083 3.083 0 0 1-1.263 2.481c.904 4.147 3.698 7.653 8.797 7.653 5.107 0 7.9-3.518 8.8-7.674a3.081 3.081 0 0 1-1.238-2.46 3.096 3.096 0 0 1 3.091-3.094 3.096 3.096 0 0 1 3.092 3.094 3.083 3.083 0 0 1-1.666 2.728zM9.068 5.873h-.707.707z" class="cls-1"/></svg>