<svg xmlns="http://www.w3.org/2000/svg" preserveAspectRatio="xMidYMid" width="67" height="81" viewBox="0 0 67 81"><defs><style>.cls-1{fill:#fff;filter:url(#filter-chain-1);fill-rule:evenodd}</style><filter id="filter-chain-1" filterUnits="userSpaceOnUse"><feOffset dy="2" in="SourceAlpha"/><feGaussianBlur stdDeviation="2.449" result="dropBlur"/><feFlood flood-opacity=".22"/><feComposite operator="in" in2="dropBlur" result="dropShadowComp"/><feComposite in="SourceGraphic" result="shadowed"/><feFlood flood-color="#9c3"/><feComposite operator="in" in2="SourceGraphic"/><feBlend in2="shadowed" result="solidFill"/><feOffset dy="-2" in="SourceAlpha"/><feGaussianBlur result="innerShadowBlur"/><feFlood flood-opacity=".2"/><feComposite operator="out" in2="innerShadowBlur"/><feComposite operator="in" in2="SourceAlpha"/><feBlend in2="solidFill" result="innerShadow"/></filter></defs><path d="M59.904 34.563v25.88a1.61 1.61 0 0 1-1.607 1.616H25.598c.154.492.281.991.36 1.512h21.856c.467 0 .912.205 1.216.56l5.088 5.924a1.618 1.618 0 0 1-.166 2.277 1.594 1.594 0 0 1-1.05.393c-.451 0-.899-.189-1.216-.56l-4.608-5.363H25.95c-.796 4.925-5.024 8.706-10.146 8.706-5.686 0-10.312-4.649-10.312-10.364 0-5.716 4.626-10.366 10.312-10.366.23 0 .444.053.67.068V8.737h-5.357A1.611 1.611 0 0 1 9.51 7.122c0-.892.72-1.616 1.607-1.616h6.964c.887 0 1.607.724 1.607 1.616v48.432a10.317 10.317 0 0 1 3.258 2.141l.003-23.181-1.611-.006v-7.972c0-.892.72-1.615 1.607-1.615h36.959a1.61 1.61 0 0 1 1.607 1.615v8.023l-1.607.004zm-44.1 23.445c-3.913 0-7.097 3.201-7.097 7.136 0 3.933 3.184 7.133 7.097 7.133 3.914 0 7.098-3.2 7.098-7.133 0-3.935-3.184-7.136-7.098-7.136zm40.886.82l-.009-21.146H26.165l-.005 21.146h30.53zm1.607-30.676H24.553v6.333c.057-.006.107-.034.167-.034h33.113c.099 0 .184.04.278.057h.186v-6.356zM37.41 41.109h7.985a1.61 1.61 0 0 1 1.607 1.615 1.61 1.61 0 0 1-1.607 1.615H37.41a1.61 1.61 0 0 1-1.608-1.615c0-.893.72-1.615 1.608-1.615z" class="cls-1"/></svg>