<svg xmlns="http://www.w3.org/2000/svg" preserveAspectRatio="xMidYMid" width="111" height="83" viewBox="0 0 111 83"><defs><style>.cls-1{fill:#fff;filter:url(#filter-chain-1);fill-rule:evenodd}</style><filter id="filter-chain-1" filterUnits="userSpaceOnUse"><feOffset dy="2" in="SourceAlpha"/><feGaussianBlur stdDeviation="2.449" result="dropBlur"/><feFlood flood-opacity=".22"/><feComposite operator="in" in2="dropBlur" result="dropShadowComp"/><feComposite in="SourceGraphic" result="shadowed"/><feFlood flood-color="#9c3"/><feComposite operator="in" in2="SourceGraphic"/><feBlend in2="shadowed" result="solidFill"/><feOffset dy="-2" in="SourceAlpha"/><feGaussianBlur result="innerShadowBlur"/><feFlood flood-opacity=".2"/><feComposite operator="out" in2="innerShadowBlur"/><feComposite operator="in" in2="SourceAlpha"/><feBlend in2="solidFill" result="innerShadow"/></filter></defs><path d="M100.985 63.662c2.874 1.947 4.161 5.022 3.285 7.833-.759 2.428-3.421 5.024-8.62 5.024h-80.3c-5.199 0-7.862-2.596-8.62-5.024-.877-2.811.411-5.886 3.284-7.833 4.474-3.034 38.45-23.511 43.625-26.629v-7.981c0-1.019.832-1.845 1.862-1.845 4.741 0 8.598-3.821 8.598-8.518 0-4.697-3.857-8.518-8.598-8.518-4.74 0-8.597 3.821-8.597 8.518 0 .727.093 1.454.277 2.159a1.842 1.842 0 0 1-1.337 2.248 1.863 1.863 0 0 1-2.268-1.325 12.204 12.204 0 0 1-.396-3.082c0-6.731 5.526-12.208 12.321-12.208 6.794 0 12.322 5.477 12.322 12.208 0 6.104-4.546 11.178-10.46 12.07v6.274c6.146 3.704 39.233 23.654 43.622 26.629zm-90.696 6.742c.467 1.495 2.406 2.424 5.061 2.424h80.3c2.655 0 4.593-.929 5.061-2.424.391-1.251-.309-2.667-1.828-3.697-4.29-2.908-37.003-22.632-43.375-26.472-5.569 3.346-39.094 23.559-43.392 26.472-1.518 1.03-2.218 2.446-1.827 3.697z" class="cls-1"/></svg>