<svg xmlns="http://www.w3.org/2000/svg" preserveAspectRatio="xMidYMid" width="80" height="81" viewBox="0 0 80 81"><defs><style>.cls-1{fill:#fff;filter:url(#filter-chain-1);fill-rule:evenodd}</style><filter id="filter-chain-1" filterUnits="userSpaceOnUse"><feOffset dy="2" in="SourceAlpha"/><feGaussianBlur stdDeviation="2.449" result="dropBlur"/><feFlood flood-opacity=".22"/><feComposite operator="in" in2="dropBlur" result="dropShadowComp"/><feComposite in="SourceGraphic" result="shadowed"/><feFlood flood-color="#9c3"/><feComposite operator="in" in2="SourceGraphic"/><feBlend in2="shadowed" result="solidFill"/><feOffset dy="-2" in="SourceAlpha"/><feGaussianBlur result="innerShadowBlur"/><feFlood flood-opacity=".2"/><feComposite operator="out" in2="innerShadowBlur"/><feComposite operator="in" in2="SourceAlpha"/><feBlend in2="solidFill" result="innerShadow"/></filter></defs><path d="M74.496 44.888c.192 6.761-4.766 9.524-8.93 12.56-.695 7.665-4.605 14.047-12.237 14.211a9.424 9.424 0 0 1-.237.003c-2.636 0-4.635-.948-7.206-1.324-2.713 1.199-4.345 3.299-7.11 4.13-1.206.362-2.331.525-3.386.525-5.885 0-9.54-5.086-12.157-9.118-7.722-.701-14.37-4.571-14.388-12.394-.006-2.603.953-4.544 1.322-7.109-.979-2.313-3.321-4.503-4.132-7.102-2.489-7.952 4.222-12.723 8.599-15.531.524-8.048 5.005-14.393 12.896-14.393 1.045 0 2.147.109 3.309.343.92.184 2.137.833 3.128.833.061 0 .122-.001.18-.007 1.88-.162 5.084-3.327 7.107-3.964 1.227-.386 2.376-.558 3.451-.558 6.001 0 9.757 5.363 12.261 8.985 7.698.614 14.259 4.811 14.387 12.393.045 2.685-.936 4.837-1.325 7.438 1.577 3.463 4.34 5.547 4.468 10.079zm-7.664-10.451c.168-1.113.416-2.101.657-3.059.345-1.37.642-2.554.622-3.821-.106-6.265-6.038-8.968-11.554-9.409a2.92 2.92 0 0 1-2.165-1.248c-2.785-4.023-5.623-7.633-9.734-7.633-.805 0-1.659.14-2.541.417-.48.151-1.592.925-2.403 1.487-1.779 1.238-3.46 2.405-5.256 2.559a4.964 4.964 0 0 1-.428.018c-1.1 0-2.102-.353-2.907-.637-.272-.096-.612-.215-.764-.245a13.76 13.76 0 0 0-2.698-.282c-6.713 0-9.49 5.95-9.854 11.518a2.907 2.907 0 0 1-1.332 2.261c-5.535 3.553-8.896 6.962-7.301 12.051.31 1 1.062 2.072 1.856 3.208.779 1.11 1.585 2.256 2.134 3.554.206.489.276 1.026.199 1.55-.169 1.172-.44 2.216-.68 3.136-.321 1.234-.6 2.302-.597 3.476.017 7.511 8.108 9.053 11.585 9.37.89.081 1.696.565 2.182 1.317 2.416 3.722 5.347 7.695 9.585 7.695.79 0 1.635-.132 2.511-.396 1.05-.316 1.965-.972 3.026-1.734 1.03-.739 2.198-1.576 3.671-2.227a2.89 2.89 0 0 1 1.599-.217c1.15.167 2.189.432 3.107.668 1.281.327 2.385.61 3.603.61l.171-.003c7.446-.162 8.964-8.038 9.27-11.415a2.92 2.92 0 0 1 1.185-2.091c.416-.302.839-.602 1.266-.905 4.03-2.859 6.496-4.826 6.374-9.085-.061-2.183-.938-3.522-2.152-5.38-.659-1.002-1.4-2.137-2.008-3.472a2.906 2.906 0 0 1-.229-1.636zM50.269 58.441c-3.903 0-7.076-3.171-7.076-7.069s3.173-7.069 7.076-7.069c3.9 0 7.074 3.171 7.074 7.069s-3.174 7.069-7.074 7.069zm0-11.017a3.955 3.955 0 0 0-3.953 3.948 3.956 3.956 0 0 0 3.953 3.949 3.954 3.954 0 0 0 3.951-3.949 3.954 3.954 0 0 0-3.951-3.948zM28.85 54.771a1.557 1.557 0 0 1-1.104.457 1.56 1.56 0 0 1-1.104-2.664l25.678-25.66a1.563 1.563 0 0 1 2.208 0c.61.61.61 1.597 0 2.207L28.85 54.771zm2.471-17.033c-3.902 0-7.075-3.171-7.075-7.069s3.173-7.069 7.075-7.069c3.901 0 7.075 3.171 7.075 7.069s-3.174 7.069-7.075 7.069zm0-11.017a3.955 3.955 0 0 0-3.952 3.948 3.953 3.953 0 0 0 7.904 0 3.954 3.954 0 0 0-3.952-3.948z" class="cls-1"/></svg>