<svg xmlns="http://www.w3.org/2000/svg" preserveAspectRatio="xMidYMid" width="107" height="76" viewBox="0 0 107 76"><defs><style>.cls-1{fill:#fff;filter:url(#filter-chain-1);fill-rule:evenodd}</style><filter id="filter-chain-1" filterUnits="userSpaceOnUse"><feOffset dy="2" in="SourceAlpha"/><feGaussianBlur stdDeviation="2.449" result="dropBlur"/><feFlood flood-opacity=".22"/><feComposite operator="in" in2="dropBlur" result="dropShadowComp"/><feComposite in="SourceGraphic" result="shadowed"/><feFlood flood-color="#9c3"/><feComposite operator="in" in2="SourceGraphic"/><feBlend in2="shadowed" result="solidFill"/><feOffset dy="-2" in="SourceAlpha"/><feGaussianBlur result="innerShadowBlur"/><feFlood flood-opacity=".2"/><feComposite operator="out" in2="innerShadowBlur"/><feComposite operator="in" in2="SourceAlpha"/><feBlend in2="solidFill" result="innerShadow"/></filter></defs><path d="M100.935 39.39C77.957 69.675 60.196 70.256 53.503 70.473c-.281.01-.579.016-.893.016-8.333 0-25.453-4.021-46.488-30.96-.871-1.117-.818-2.208.045-3.12C27.157 9.532 44.273 5.511 52.604 5.511c.316 0 .617.006.899.015 6.696.216 24.469.788 47.479 31.138.175.192.308.413.395.648a1.943 1.943 0 0 1-.442 2.078zM53.38 9.4a23.795 23.795 0 0 0-.776-.012c-7.552 0-23.086 3.743-42.794 28.611 19.709 24.87 35.246 28.613 42.8 28.613.271 0 .526-.004.77-.012 6.128-.2 22.273-.728 43.78-28.603C75.648 10.123 59.508 9.598 53.38 9.4zm.605 47.198c-10.121 0-18.354-8.343-18.354-18.599 0-10.254 8.233-18.597 18.354-18.597 10.12 0 18.353 8.343 18.353 18.597 0 10.256-8.233 18.599-18.353 18.599zm0-33.319c-8.011 0-14.529 6.603-14.529 14.72s6.518 14.722 14.529 14.722c8.01 0 14.527-6.605 14.527-14.722 0-8.117-6.517-14.72-14.527-14.72zm-5.311 11.256c-1.94 0-3.511-1.592-3.511-3.555 0-1.965 1.571-3.557 3.511-3.557 1.938 0 3.506 1.592 3.506 3.557 0 1.963-1.568 3.555-3.506 3.555z" class="cls-1"/></svg>