<svg xmlns="http://www.w3.org/2000/svg" preserveAspectRatio="xMidYMid" width="87" height="80" viewBox="0 0 87 80"><defs><style>.cls-1{fill:#fff;filter:url(#filter-chain-1);fill-rule:evenodd}</style><filter id="filter-chain-1" filterUnits="userSpaceOnUse"><feOffset dy="2" in="SourceAlpha"/><feGaussianBlur stdDeviation="2.449" result="dropBlur"/><feFlood flood-opacity=".22"/><feComposite operator="in" in2="dropBlur" result="dropShadowComp"/><feComposite in="SourceGraphic" result="shadowed"/><feFlood flood-color="#9c3"/><feComposite operator="in" in2="SourceGraphic"/><feBlend in2="shadowed" result="solidFill"/><feOffset dy="-2" in="SourceAlpha"/><feGaussianBlur result="innerShadowBlur"/><feFlood flood-opacity=".2"/><feComposite operator="out" in2="innerShadowBlur"/><feComposite operator="in" in2="SourceAlpha"/><feBlend in2="solidFill" result="innerShadow"/></filter></defs><path d="M78.043 55.419h-.052v12.177c0 3.815-3.096 6.917-6.904 6.917H12.408c-3.806 0-6.903-3.102-6.903-6.917V11.593h.082c.406-3.43 3.292-6.107 6.821-6.107h48.216c3.808 0 6.904 3.103 6.904 6.917v5.045h3.559c3.808 0 6.904 3.102 6.904 6.917v12.032h.052a3.46 3.46 0 0 1 3.452 3.459V51.96a3.46 3.46 0 0 1-3.452 3.459zM64.076 12.403a3.46 3.46 0 0 0-3.452-3.458H12.408a3.46 3.46 0 0 0-3.452 3.458v2.667c0 1.906 1.549 2.378 3.452 2.378h51.668v-5.045zm10.463 11.962a3.46 3.46 0 0 0-3.452-3.459H12.408c-1.263 0-2.432-.366-3.452-.962v47.652a3.46 3.46 0 0 0 3.452 3.459h58.679a3.46 3.46 0 0 0 3.452-3.459V55.419H59.022a3.46 3.46 0 0 1-3.452-3.459V39.856a3.46 3.46 0 0 1 3.452-3.459h15.517V24.365zm3.504 15.491H59.022V51.96h19.023l-.002-12.104zm-13.027 9.642a3.263 3.263 0 0 1-3.259-3.266 3.263 3.263 0 0 1 3.259-3.266c1.8 0 3.26 1.462 3.26 3.266a3.263 3.263 0 0 1-3.26 3.266z" class="cls-1"/></svg>