<svg xmlns="http://www.w3.org/2000/svg" preserveAspectRatio="xMidYMid" width="25" height="23" viewBox="0 0 25 23"><defs><style>.cls-1{fill:#7e7f84;filter:url(#color-overlay-1);fill-rule:evenodd}</style><filter id="color-overlay-1" filterUnits="userSpaceOnUse"><feFlood/><feComposite operator="in" in2="SourceGraphic"/><feBlend in2="SourceGraphic" result="solidFill"/></filter></defs><path d="M7.006 1.615c.764 0 2.145.373 4.385 2.627l1.111 1.117 1.094-1.135c1.556-1.614 3.211-2.617 4.32-2.617 1.495 0 2.674.522 3.823 1.694a5.86 5.86 0 0 1 1.68 4.133 5.871 5.871 0 0 1-1.69 4.146c-.089.093-4.797 5.282-8.742 9.631a.733.733 0 0 1-1.017.006c-.961-1.092-7.928-9.006-8.739-9.833a5.868 5.868 0 0 1-1.68-4.136c0-1.561.597-3.028 1.681-4.133 1.055-1.076 2.289-1.5 3.774-1.5m0-1.592c-1.864 0-3.507.569-4.875 1.965-2.852 2.905-2.852 7.616 0 10.523.813.831 8.715 9.81 8.715 9.81a2.273 2.273 0 0 0 3.259 0s8.643-9.529 8.735-9.624c2.851-2.907 2.851-7.618 0-10.524C21.425.731 19.844.015 17.916.015c-1.842 0-3.897 1.5-5.431 3.092C10.902 1.515 8.911.023 7.006.023z" class="cls-1"/></svg>