<svg xmlns="http://www.w3.org/2000/svg" preserveAspectRatio="xMidYMid" width="90" height="76" viewBox="0 0 90 76"><defs><style>.cls-1{fill:#fff;filter:url(#filter-chain-1);fill-rule:evenodd}</style><filter id="filter-chain-1" filterUnits="userSpaceOnUse"><feOffset dy="2" in="SourceAlpha"/><feGaussianBlur stdDeviation="2.449" result="dropBlur"/><feFlood flood-opacity=".22"/><feComposite operator="in" in2="dropBlur" result="dropShadowComp"/><feComposite in="SourceGraphic" result="shadowed"/><feFlood flood-color="#9c3"/><feComposite operator="in" in2="SourceGraphic"/><feBlend in2="shadowed" result="solidFill"/><feOffset dy="-2" in="SourceAlpha"/><feGaussianBlur result="innerShadowBlur"/><feFlood flood-opacity=".2"/><feComposite operator="out" in2="innerShadowBlur"/><feComposite operator="in" in2="SourceAlpha"/><feBlend in2="solidFill" result="innerShadow"/></filter></defs><path d="M83.692 18.51c-1.742 3.643-9.437 21.19-10.484 22.815-.124.192-.235.381-.343.562-1.021 1.73-2.099 3.053-5.828 3.053H31.512c.746 2.234 2.294 4.992 5.52 4.992h30.752c.911 0 1.647.729 1.647 1.627s-.736 1.627-1.647 1.627H37.032c-4.564 0-7.895-3.53-9.14-8.94-.685-2.983-9.009-30.494-9.604-32.648-.64-1.37-2.124-2.354-3.567-2.354H7.148a1.638 1.638 0 0 1-1.647-1.627c0-.898.738-1.627 1.647-1.627h7.573c2.823 0 5.49.15 6.636 2.793.031.069.056.141.076.213.327 1.182 7.227 25.355 9.197 32.691h36.407c2.134 0 2.348-.363 2.983-1.44.128-.216.26-.44.408-.669.978-1.516 8.614-18.961 10.24-22.35.679-1.754.555-2.709.369-2.98-.122-.174-.515-.278-1.054-.278-3.567.052-48.786.002-50.357 0a1.638 1.638 0 0 1-1.646-1.629 1.637 1.637 0 0 1 1.647-1.624h.002c.386 0 46.765.055 50.329 0 2.169 0 3.258.919 3.794 1.691.987 1.42.966 3.473-.06 6.102zM36.16 54.797c4.241 0 7.692 3.407 7.692 7.597 0 4.189-3.451 7.599-7.692 7.599s-7.69-3.41-7.69-7.599c0-4.19 3.449-7.597 7.69-7.597zm-.001 12.072c2.498 0 4.53-2.008 4.53-4.476 0-2.466-2.032-4.473-4.53-4.473-2.495 0-4.526 2.007-4.526 4.473 0 2.468 2.031 4.476 4.526 4.476zm31.292-12.072c4.241 0 7.693 3.407 7.693 7.597 0 4.189-3.452 7.599-7.693 7.599s-7.69-3.41-7.69-7.599c0-4.19 3.449-7.597 7.69-7.597zm0 12.072c2.498 0 4.529-2.008 4.529-4.476 0-2.466-2.031-4.473-4.529-4.473-2.496 0-4.527 2.007-4.527 4.473 0 2.468 2.031 4.476 4.527 4.476z" class="cls-1"/></svg>