<svg xmlns="http://www.w3.org/2000/svg" preserveAspectRatio="xMidYMid" width="16" height="16" viewBox="0 0 16 16"><defs><style>.cls-1{fill:#7e7f84;filter:url(#color-overlay-1);fill-rule:evenodd}</style><filter id="color-overlay-1" filterUnits="userSpaceOnUse"><feFlood/><feComposite operator="in" in2="SourceGraphic"/><feBlend in2="SourceGraphic" result="solidFill"/></filter></defs><path d="M15.937.568l-.01 3.604c-.004.202-.171.322-.373.327h-.256a.359.359 0 0 1-.356-.373l.013-2.42-4.287 4.269a.498.498 0 1 1-.705-.706l4.272-4.254-2.355-.006a.41.41 0 0 1-.419-.373V.38a.385.385 0 0 1 .373-.373l3.575.015.01-.001.182-.005a.342.342 0 0 1 .255.103c.066.064.09.155.087.256l-.019.183c0 .003.013.006.013.01zM11.851 9.77c.189 0 .363.043.505.13.327.2 2.997 1.979 3.241 2.15.401.282.562.976.121 1.607-.016.022-1.695 2.343-2.65 2.343h-.022c-2.728-.088-5.921-2.734-8.12-4.938C2.726 8.858.086 5.66-.001 2.938-.032 1.969 2.314.265 2.337.249c.243-.17.523-.25.787-.25.334 0 .642.129.814.368.183.252 1.95 2.938 2.145 3.245.207.326.178.809-.077 1.293a80.156 80.156 0 0 1-.794 1.417c.237.338.846 1.134 2.08 2.37 1.241 1.245 2.029 1.849 2.365 2.085.38-.218 1.159-.662 1.416-.797.264-.139.534-.21.778-.21zm-2.249 2.189l-.518-.365c-.384-.27-1.218-.914-2.498-2.196-1.274-1.277-1.919-2.116-2.19-2.501l-.363-.519.313-.551c.403-.707.686-1.213.777-1.386a.724.724 0 0 0 .1-.322 285.118 285.118 0 0 0-2.058-3.117.162.162 0 0 0-.041-.004.397.397 0 0 0-.218.07c-.868.629-1.782 1.534-1.908 1.887.086 1.866 1.729 4.492 4.632 7.401 2.904 2.909 5.528 4.555 7.397 4.643.351-.131 1.249-1.047 1.881-1.924.076-.109.082-.196.075-.236-.41-.282-2.738-1.83-3.12-2.07l-.012-.001a.703.703 0 0 0-.314.096c-.21.11-.853.475-1.386.78l-.549.315z" class="cls-1"/></svg>