<svg xmlns="http://www.w3.org/2000/svg" xmlns:xlink="http://www.w3.org/1999/xlink" preserveAspectRatio="xMidYMid" width="80" height="81" viewBox="0 0 80 81">
  <defs>
    <style>
      .cls-1 {
        fill: #fff;
        filter: url(#filter-chain-1);
        fill-rule: evenodd;
      }
    </style>

    <filter id="filter-chain-1" filterUnits="userSpaceOnUse">
      <feOffset dy="2" in="SourceAlpha"/>
      <feGaussianBlur stdDeviation="2.449" result="dropBlur"/>
      <feFlood flood-opacity="0.22"/>
      <feComposite operator="in" in2="dropBlur" result="dropShadowComp"/>
      <feComposite in="SourceGraphic" result="shadowed"/>
      <feFlood flood-color="#9c3"/>
      <feComposite operator="in" in2="SourceGraphic"/>
      <feBlend in2="shadowed" result="solidFill"/>
      <feOffset dy="-2" in="SourceAlpha"/>
      <feGaussianBlur result="innerShadowBlur"/>
      <feFlood flood-opacity="0.2"/>
      <feComposite operator="out" in2="innerShadowBlur"/>
      <feComposite operator="in" in2="SourceAlpha"/>
      <feBlend in2="solidFill" result="innerShadow"/>
    </filter>
  </defs>
  <path d="M74.496,44.888 C74.688,51.649 69.730,54.412 65.566,57.448 C64.871,65.113 60.961,71.495 53.329,71.659 C53.250,71.661 53.170,71.662 53.092,71.662 C50.456,71.662 48.457,70.714 45.886,70.338 C43.173,71.537 41.541,73.637 38.776,74.468 C37.570,74.830 36.445,74.993 35.390,74.993 C29.505,74.993 25.850,69.907 23.233,65.875 C15.511,65.174 8.863,61.304 8.845,53.481 C8.839,50.878 9.798,48.937 10.167,46.372 C9.188,44.059 6.846,41.869 6.035,39.270 C3.546,31.318 10.257,26.547 14.634,23.739 C15.158,15.691 19.639,9.346 27.530,9.346 C28.575,9.346 29.677,9.455 30.839,9.689 C31.759,9.873 32.976,10.522 33.967,10.522 C34.028,10.522 34.089,10.521 34.147,10.515 C36.027,10.353 39.231,7.188 41.254,6.551 C42.481,6.165 43.630,5.993 44.705,5.993 C50.706,5.993 54.462,11.356 56.966,14.978 C64.664,15.592 71.225,19.789 71.353,27.371 C71.398,30.056 70.417,32.208 70.028,34.809 C71.605,38.272 74.368,40.356 74.496,44.888 ZM66.832,34.437 C67.000,33.324 67.248,32.336 67.489,31.378 C67.834,30.008 68.131,28.824 68.111,27.557 C68.005,21.292 62.073,18.589 56.557,18.148 C55.685,18.077 54.889,17.619 54.392,16.900 C51.607,12.877 48.769,9.267 44.658,9.267 C43.853,9.267 42.999,9.407 42.117,9.684 C41.637,9.835 40.525,10.609 39.714,11.171 C37.935,12.409 36.254,13.576 34.458,13.730 C34.320,13.742 34.176,13.748 34.030,13.748 C32.930,13.748 31.928,13.395 31.123,13.111 C30.851,13.015 30.511,12.896 30.359,12.866 C29.423,12.678 28.516,12.584 27.661,12.584 C20.948,12.584 18.171,18.534 17.807,24.102 C17.747,25.025 17.254,25.864 16.475,26.363 C10.940,29.916 7.579,33.325 9.174,38.414 C9.484,39.414 10.236,40.486 11.030,41.622 C11.809,42.732 12.615,43.878 13.164,45.176 C13.370,45.665 13.440,46.202 13.363,46.726 C13.194,47.898 12.923,48.942 12.683,49.862 C12.362,51.096 12.083,52.164 12.086,53.338 C12.103,60.849 20.194,62.391 23.671,62.708 C24.561,62.789 25.367,63.273 25.853,64.025 C28.269,67.747 31.200,71.720 35.438,71.720 C36.228,71.720 37.073,71.588 37.949,71.324 C38.999,71.008 39.914,70.352 40.975,69.590 C42.005,68.851 43.173,68.014 44.646,67.363 C45.019,67.197 45.419,67.114 45.823,67.114 C45.965,67.114 46.107,67.124 46.245,67.146 C47.395,67.313 48.434,67.578 49.352,67.814 C50.633,68.141 51.737,68.424 52.955,68.424 L53.126,68.421 C60.572,68.259 62.090,60.383 62.396,57.006 C62.472,56.172 62.904,55.410 63.581,54.915 C63.997,54.613 64.420,54.313 64.847,54.010 C68.877,51.151 71.343,49.184 71.221,44.925 C71.160,42.742 70.283,41.403 69.069,39.545 C68.410,38.543 67.669,37.408 67.061,36.073 C66.829,35.563 66.748,34.995 66.832,34.437 ZM50.269,58.441 C46.366,58.441 43.193,55.270 43.193,51.372 C43.193,47.474 46.366,44.303 50.269,44.303 C54.169,44.303 57.343,47.474 57.343,51.372 C57.343,55.270 54.169,58.441 50.269,58.441 ZM50.269,47.424 C48.090,47.424 46.316,49.195 46.316,51.372 C46.316,53.550 48.090,55.321 50.269,55.321 C52.448,55.321 54.220,53.550 54.220,51.372 C54.220,49.195 52.448,47.424 50.269,47.424 ZM28.850,54.771 C28.545,55.076 28.145,55.228 27.746,55.228 C27.346,55.228 26.947,55.076 26.642,54.771 C26.032,54.161 26.032,53.174 26.642,52.564 L52.320,26.904 C52.930,26.295 53.918,26.295 54.528,26.904 C55.138,27.514 55.138,28.501 54.528,29.111 L28.850,54.771 ZM31.321,37.738 C27.419,37.738 24.246,34.567 24.246,30.669 C24.246,26.771 27.419,23.600 31.321,23.600 C35.222,23.600 38.396,26.771 38.396,30.669 C38.396,34.567 35.222,37.738 31.321,37.738 ZM31.321,26.721 C29.142,26.721 27.369,28.492 27.369,30.669 C27.369,32.847 29.142,34.617 31.321,34.617 C33.501,34.617 35.273,32.847 35.273,30.669 C35.273,28.492 33.501,26.721 31.321,26.721 Z" class="cls-1"/>
</svg>
