<svg xmlns="http://www.w3.org/2000/svg" xmlns:xlink="http://www.w3.org/1999/xlink" preserveAspectRatio="xMidYMid" width="107" height="76" viewBox="0 0 107 76">
  <defs>
    <style>
      .cls-1 {
        fill: #fff;
        filter: url(#filter-chain-1);
        fill-rule: evenodd;
      }
    </style>

    <filter id="filter-chain-1" filterUnits="userSpaceOnUse">
      <feOffset dy="2" in="SourceAlpha"/>
      <feGaussianBlur stdDeviation="2.449" result="dropBlur"/>
      <feFlood flood-opacity="0.22"/>
      <feComposite operator="in" in2="dropBlur" result="dropShadowComp"/>
      <feComposite in="SourceGraphic" result="shadowed"/>
      <feFlood flood-color="#9c3"/>
      <feComposite operator="in" in2="SourceGraphic"/>
      <feBlend in2="shadowed" result="solidFill"/>
      <feOffset dy="-2" in="SourceAlpha"/>
      <feGaussianBlur result="innerShadowBlur"/>
      <feFlood flood-opacity="0.2"/>
      <feComposite operator="out" in2="innerShadowBlur"/>
      <feComposite operator="in" in2="SourceAlpha"/>
      <feBlend in2="solidFill" result="innerShadow"/>
    </filter>
  </defs>
  <path d="M100.935,39.390 C77.957,69.675 60.196,70.256 53.503,70.473 C53.222,70.483 52.924,70.489 52.610,70.489 C44.277,70.489 27.157,66.468 6.122,39.529 C5.251,38.412 5.304,37.321 6.167,36.409 C27.157,9.532 44.273,5.511 52.604,5.511 C52.920,5.511 53.221,5.517 53.503,5.526 C60.199,5.742 77.972,6.314 100.982,36.664 C101.157,36.856 101.290,37.077 101.377,37.312 C101.486,37.596 101.531,37.908 101.495,38.228 C101.445,38.682 101.239,39.087 100.935,39.390 ZM53.380,9.400 C53.135,9.392 52.877,9.388 52.604,9.388 C45.052,9.388 29.518,13.131 9.810,37.999 C29.519,62.869 45.056,66.612 52.610,66.612 C52.881,66.612 53.136,66.608 53.380,66.600 C59.508,66.400 75.653,65.872 97.160,37.997 C75.648,10.123 59.508,9.598 53.380,9.400 ZM53.985,56.598 C43.864,56.598 35.631,48.255 35.631,37.999 C35.631,27.745 43.864,19.402 53.985,19.402 C64.105,19.402 72.338,27.745 72.338,37.999 C72.338,48.255 64.105,56.598 53.985,56.598 ZM53.985,23.279 C45.974,23.279 39.456,29.882 39.456,37.999 C39.456,46.116 45.974,52.721 53.985,52.721 C61.995,52.721 68.512,46.116 68.512,37.999 C68.512,29.882 61.995,23.279 53.985,23.279 ZM48.674,34.535 C46.734,34.535 45.163,32.943 45.163,30.980 C45.163,29.015 46.734,27.423 48.674,27.423 C50.612,27.423 52.180,29.015 52.180,30.980 C52.180,32.943 50.612,34.535 48.674,34.535 Z" class="cls-1"/>
</svg>
