<svg xmlns="http://www.w3.org/2000/svg" xmlns:xlink="http://www.w3.org/1999/xlink" preserveAspectRatio="xMidYMid" width="66" height="80" viewBox="0 0 66 80">
  <defs>
    <style>
      .cls-1 {
        fill: #fff;
        filter: url(#filter-chain-1);
        fill-rule: evenodd;
      }
    </style>

    <filter id="filter-chain-1" filterUnits="userSpaceOnUse">
      <feOffset dy="2" in="SourceAlpha"/>
      <feGaussianBlur stdDeviation="2.449" result="dropBlur"/>
      <feFlood flood-opacity="0.22"/>
      <feComposite operator="in" in2="dropBlur" result="dropShadowComp"/>
      <feComposite in="SourceGraphic" result="shadowed"/>
      <feFlood flood-color="#9c3"/>
      <feComposite operator="in" in2="SourceGraphic"/>
      <feBlend in2="shadowed" result="solidFill"/>
      <feOffset dy="-2" in="SourceAlpha"/>
      <feGaussianBlur result="innerShadowBlur"/>
      <feFlood flood-opacity="0.2"/>
      <feComposite operator="out" in2="innerShadowBlur"/>
      <feComposite operator="in" in2="SourceAlpha"/>
      <feBlend in2="solidFill" result="innerShadow"/>
    </filter>
  </defs>
  <path d="M59.523,30.442 C59.520,30.858 59.341,31.251 59.031,31.531 L53.159,36.816 L54.575,44.192 C54.620,44.298 54.651,44.413 54.671,44.531 C54.798,45.346 54.225,46.107 53.389,46.231 C53.380,46.233 53.370,46.234 53.359,46.236 C53.341,46.238 53.325,46.241 53.308,46.241 L45.375,47.147 L45.264,47.376 L52.867,65.627 C53.071,66.160 52.950,66.757 52.553,67.173 C52.159,67.587 51.557,67.749 51.000,67.585 L44.869,65.798 L39.915,71.026 C39.648,71.307 39.285,71.473 38.905,71.501 C38.756,71.511 38.603,71.500 38.453,71.466 C37.920,71.348 37.493,70.960 37.334,70.450 L33.618,59.679 L30.920,73.276 C30.815,73.832 30.398,74.286 29.840,74.443 C29.663,74.491 29.484,74.510 29.308,74.497 C28.924,74.470 28.557,74.302 28.289,74.015 L23.974,69.399 L16.973,71.392 C16.449,71.542 15.882,71.408 15.488,71.036 C15.093,70.667 14.931,70.119 15.062,69.600 L20.898,48.035 L20.409,46.994 L12.491,45.994 C12.071,45.941 11.692,45.719 11.445,45.383 C11.198,45.047 11.105,44.626 11.188,44.219 L12.759,36.570 L6.956,31.213 C6.648,30.929 6.474,30.534 6.477,30.120 C6.480,29.706 6.658,29.311 6.969,29.031 L12.841,23.744 L11.368,16.078 C11.290,15.670 11.388,15.251 11.639,14.917 C11.891,14.584 12.263,14.355 12.693,14.319 L20.623,13.415 L24.043,6.367 C24.225,5.994 24.558,5.710 24.962,5.584 C25.358,5.459 25.803,5.503 26.173,5.706 L33.132,9.528 L40.140,5.790 C40.511,5.593 40.951,5.554 41.354,5.684 C41.756,5.814 42.085,6.102 42.261,6.478 L45.591,13.568 L53.511,14.568 C53.929,14.622 54.309,14.843 54.556,15.179 C54.802,15.516 54.894,15.937 54.811,16.343 L53.241,23.991 L59.044,29.349 C59.353,29.633 59.526,30.030 59.523,30.442 ZM34.955,54.206 L39.475,67.095 L43.272,63.088 C43.669,62.669 44.274,62.507 44.830,62.671 L48.920,63.862 L43.498,51.016 L41.956,54.194 C41.774,54.569 41.443,54.852 41.039,54.977 C40.961,55.002 40.883,55.019 40.804,55.031 C40.470,55.081 40.125,55.021 39.827,54.856 L35.091,52.255 L34.770,53.874 C34.839,53.980 34.915,54.081 34.955,54.206 ZM18.667,67.801 L24.033,66.273 C24.591,66.113 25.196,66.278 25.589,66.700 L28.466,69.776 L32.143,51.421 L25.860,54.772 C25.486,54.971 25.049,55.009 24.646,54.878 C24.244,54.748 23.916,54.460 23.739,54.085 L22.897,52.293 L18.667,67.801 ZM50.527,25.594 C50.145,25.240 49.975,24.720 50.079,24.215 L51.492,17.325 L44.358,16.423 C43.836,16.357 43.386,16.032 43.168,15.565 L40.167,9.178 L33.854,12.546 C33.393,12.790 32.832,12.789 32.372,12.536 L26.103,9.092 L23.021,15.442 C22.796,15.906 22.360,16.241 21.818,16.285 L14.674,17.100 L16.000,24.006 C16.097,24.512 15.921,25.031 15.534,25.379 L10.244,30.142 L15.473,34.969 C15.855,35.322 16.025,35.842 15.922,36.347 L14.506,43.237 L21.640,44.139 C22.161,44.205 22.612,44.528 22.832,44.996 L25.833,51.384 L32.147,48.017 C32.305,47.931 32.475,47.877 32.649,47.851 C32.981,47.801 33.326,47.860 33.627,48.026 L39.896,51.469 L42.977,45.120 C43.204,44.655 43.714,44.314 44.181,44.278 L51.327,43.463 L50.000,36.554 C49.902,36.049 50.079,35.530 50.466,35.180 L55.754,30.420 L50.527,25.594 ZM33.250,42.186 C26.552,42.186 21.104,36.861 21.104,30.318 C21.104,23.775 26.552,18.452 33.250,18.452 C39.946,18.452 45.394,23.775 45.394,30.318 C45.394,36.861 39.946,42.186 33.250,42.186 ZM33.250,21.438 C28.238,21.438 24.160,25.422 24.160,30.318 C24.160,35.215 28.238,39.200 33.250,39.200 C38.262,39.200 42.338,35.215 42.338,30.318 C42.338,25.422 38.262,21.438 33.250,21.438 Z" class="cls-1"/>
</svg>
