<svg xmlns="http://www.w3.org/2000/svg" xmlns:xlink="http://www.w3.org/1999/xlink" preserveAspectRatio="xMidYMid" width="67" height="81" viewBox="0 0 67 81">
  <defs>
    <style>
      .cls-1 {
        fill: #fff;
        filter: url(#filter-chain-1);
        fill-rule: evenodd;
      }
    </style>

    <filter id="filter-chain-1" filterUnits="userSpaceOnUse">
      <feOffset dy="2" in="SourceAlpha"/>
      <feGaussianBlur stdDeviation="2.449" result="dropBlur"/>
      <feFlood flood-opacity="0.22"/>
      <feComposite operator="in" in2="dropBlur" result="dropShadowComp"/>
      <feComposite in="SourceGraphic" result="shadowed"/>
      <feFlood flood-color="#9c3"/>
      <feComposite operator="in" in2="SourceGraphic"/>
      <feBlend in2="shadowed" result="solidFill"/>
      <feOffset dy="-2" in="SourceAlpha"/>
      <feGaussianBlur result="innerShadowBlur"/>
      <feFlood flood-opacity="0.2"/>
      <feComposite operator="out" in2="innerShadowBlur"/>
      <feComposite operator="in" in2="SourceAlpha"/>
      <feBlend in2="solidFill" result="innerShadow"/>
    </filter>
  </defs>
  <path d="M59.904,34.563 L59.904,60.443 C59.904,61.336 59.185,62.059 58.297,62.059 L25.598,62.059 C25.752,62.551 25.879,63.050 25.958,63.571 L47.814,63.571 C48.281,63.571 48.726,63.776 49.030,64.131 L54.118,70.055 C54.699,70.730 54.624,71.749 53.952,72.332 C53.649,72.596 53.274,72.725 52.902,72.725 C52.451,72.725 52.003,72.536 51.686,72.165 L47.078,66.802 L25.950,66.802 C25.154,71.727 20.926,75.508 15.804,75.508 C10.118,75.508 5.492,70.859 5.492,65.144 C5.492,59.428 10.118,54.778 15.804,54.778 C16.034,54.778 16.248,54.831 16.474,54.846 L16.474,8.737 L11.117,8.737 C10.230,8.737 9.510,8.014 9.510,7.122 C9.510,6.230 10.230,5.506 11.117,5.506 L18.081,5.506 C18.968,5.506 19.688,6.230 19.688,7.122 L19.688,55.554 C20.910,56.056 22.010,56.788 22.946,57.695 L22.949,34.514 L21.338,34.508 L21.338,26.536 C21.338,25.644 22.058,24.921 22.945,24.921 L59.904,24.921 C60.792,24.921 61.511,25.644 61.511,26.536 C61.511,26.536 61.511,31.258 61.511,33.145 C61.511,33.968 61.511,34.559 61.511,34.559 L59.904,34.563 ZM15.804,58.008 C11.891,58.008 8.707,61.209 8.707,65.144 C8.707,69.077 11.891,72.277 15.804,72.277 C19.718,72.277 22.902,69.077 22.902,65.144 C22.902,61.209 19.718,58.008 15.804,58.008 ZM56.690,58.828 L56.681,37.682 L26.165,37.682 L26.160,58.828 L56.690,58.828 ZM58.297,28.152 L24.553,28.152 L24.553,34.485 C24.610,34.479 24.660,34.451 24.720,34.451 L57.833,34.451 C57.932,34.451 58.017,34.491 58.111,34.508 L58.297,34.508 L58.297,28.152 ZM37.410,41.109 L45.395,41.109 C46.283,41.109 47.002,41.831 47.002,42.724 C47.002,43.617 46.283,44.339 45.395,44.339 L37.410,44.339 C36.522,44.339 35.802,43.617 35.802,42.724 C35.802,41.831 36.522,41.109 37.410,41.109 Z" class="cls-1"/>
</svg>
