<svg xmlns="http://www.w3.org/2000/svg" xmlns:xlink="http://www.w3.org/1999/xlink" preserveAspectRatio="xMidYMid" width="118" height="74" viewBox="0 0 118 74">
  <defs>
    <style>
      .cls-1 {
        fill: #fff;
        filter: url(#filter-chain-1);
        fill-rule: evenodd;
      }
    </style>

    <filter id="filter-chain-1" filterUnits="userSpaceOnUse">
      <feOffset dy="2" in="SourceAlpha"/>
      <feGaussianBlur stdDeviation="2.449" result="dropBlur"/>
      <feFlood flood-opacity="0.22"/>
      <feComposite operator="in" in2="dropBlur" result="dropShadowComp"/>
      <feComposite in="SourceGraphic" result="shadowed"/>
      <feFlood flood-color="#9c3"/>
      <feComposite operator="in" in2="SourceGraphic"/>
      <feBlend in2="shadowed" result="solidFill"/>
      <feOffset dy="-2" in="SourceAlpha"/>
      <feGaussianBlur result="innerShadowBlur"/>
      <feFlood flood-opacity="0.2"/>
      <feComposite operator="out" in2="innerShadowBlur"/>
      <feComposite operator="in" in2="SourceAlpha"/>
      <feBlend in2="solidFill" result="innerShadow"/>
    </filter>
  </defs>
  <path d="M106.478,58.513 L105.129,58.513 C105.103,57.406 104.945,56.332 104.677,55.298 L106.478,55.298 C108.346,55.298 109.294,54.351 109.294,52.485 L109.294,45.034 C109.275,43.838 108.504,43.351 106.750,42.533 C106.387,42.363 106.035,41.658 105.711,41.485 C103.892,40.509 97.830,36.535 96.026,35.001 C95.065,34.185 92.070,30.906 91.020,28.360 C90.589,27.314 88.628,23.923 86.733,20.644 C84.716,17.157 82.631,13.550 81.672,11.568 C80.297,8.724 79.600,8.724 77.918,8.724 L77.488,8.724 L59.964,8.724 L42.514,55.298 L75.182,55.298 C74.913,56.332 74.756,57.406 74.729,58.513 L40.202,58.513 C39.675,58.513 39.182,58.256 38.881,57.824 C38.580,57.392 38.510,56.841 38.693,56.347 L57.335,6.557 C57.568,5.927 58.170,5.508 58.844,5.508 L77.705,5.509 L77.918,5.508 C80.411,5.508 82.483,5.851 84.570,10.169 C85.477,12.045 87.532,15.599 89.520,19.036 C91.647,22.714 93.484,25.891 93.997,27.137 C94.783,29.044 97.390,31.940 98.111,32.552 C99.726,33.925 105.606,38.318 107.234,39.192 C107.508,39.339 107.806,39.477 108.112,39.620 C109.843,40.428 112.458,41.647 112.513,45.008 L112.513,52.485 C112.513,56.147 110.144,58.513 106.478,58.513 ZM7.122,16.625 C6.233,16.625 5.512,15.905 5.512,15.017 C5.512,14.129 6.233,13.410 7.122,13.410 L50.446,13.410 L49.208,16.625 L7.122,16.625 ZM10.436,26.271 L44.503,26.271 L43.265,29.486 L10.436,29.486 C9.547,29.486 8.826,28.766 8.826,27.878 C8.826,26.990 9.547,26.271 10.436,26.271 ZM13.749,39.032 L38.599,39.032 L37.361,42.247 L13.749,42.247 C12.860,42.247 12.140,41.528 12.140,40.639 C12.140,39.752 12.860,39.032 13.749,39.032 ZM59.249,38.216 C59.249,39.580 58.142,40.687 56.776,40.687 C55.410,40.687 54.303,39.580 54.303,38.216 C54.303,36.851 55.410,35.745 56.776,35.745 C58.142,35.745 59.249,36.851 59.249,38.216 ZM62.443,12.856 C62.669,12.213 63.277,11.783 63.960,11.783 L76.762,11.783 C77.365,11.783 77.918,12.120 78.194,12.656 L86.472,28.756 C86.730,29.258 86.705,29.857 86.409,30.336 C86.116,30.811 85.597,31.099 85.040,31.099 C85.035,31.099 85.029,31.099 85.024,31.099 L58.365,31.143 C57.846,31.138 57.361,30.883 57.063,30.457 C56.765,30.033 56.692,29.490 56.864,29.001 L62.443,12.856 ZM82.390,27.856 L75.780,14.998 L65.099,14.998 L60.648,27.951 L82.390,27.856 ZM90.498,46.867 C96.481,46.867 101.331,51.711 101.331,57.687 C101.331,63.663 96.481,68.508 90.498,68.508 C84.515,68.508 79.665,63.663 79.665,57.687 C79.665,51.711 84.515,46.867 90.498,46.867 ZM90.494,64.702 C94.372,64.702 97.515,61.563 97.515,57.689 C97.515,53.816 94.372,50.677 90.494,50.677 C86.617,50.677 83.473,53.816 83.473,57.689 C83.473,61.563 86.617,64.702 90.494,64.702 Z" class="cls-1"/>
</svg>
