<svg xmlns="http://www.w3.org/2000/svg" xmlns:xlink="http://www.w3.org/1999/xlink" preserveAspectRatio="xMidYMid" width="71" height="81" viewBox="0 0 71 81">
  <defs>
    <style>
      .cls-1 {
        fill: #fff;
        filter: url(#filter-chain-1);
        fill-rule: evenodd;
      }
    </style>

    <filter id="filter-chain-1" filterUnits="userSpaceOnUse">
      <feOffset dy="2" in="SourceAlpha"/>
      <feGaussianBlur stdDeviation="2.449" result="dropBlur"/>
      <feFlood flood-opacity="0.22"/>
      <feComposite operator="in" in2="dropBlur" result="dropShadowComp"/>
      <feComposite in="SourceGraphic" result="shadowed"/>
      <feFlood flood-color="#9c3"/>
      <feComposite operator="in" in2="SourceGraphic"/>
      <feBlend in2="shadowed" result="solidFill"/>
      <feOffset dy="-2" in="SourceAlpha"/>
      <feGaussianBlur result="innerShadowBlur"/>
      <feFlood flood-opacity="0.2"/>
      <feComposite operator="out" in2="innerShadowBlur"/>
      <feComposite operator="in" in2="SourceAlpha"/>
      <feBlend in2="solidFill" result="innerShadow"/>
    </filter>
  </defs>
  <path d="M60.368,15.627 L59.597,15.627 L59.597,15.631 L59.594,15.631 L59.594,47.332 C59.594,49.721 57.626,51.664 55.208,51.664 L39.138,51.664 C39.135,54.307 39.129,59.499 39.141,58.895 C39.175,67.109 38.512,68.876 35.102,72.221 C32.807,74.473 30.516,75.487 25.388,75.487 C25.242,75.487 25.097,75.486 24.948,75.484 C3.778,74.695 5.522,54.531 5.522,49.504 C5.522,49.459 5.522,49.415 5.522,49.371 L5.522,49.370 L5.522,46.408 C5.522,43.382 8.014,40.920 11.078,40.920 L11.382,40.938 L11.382,36.705 C11.382,33.679 13.873,31.217 16.937,31.217 L17.337,31.217 C17.925,31.228 18.319,31.218 18.693,31.222 L18.693,25.384 C18.693,22.358 21.185,19.896 24.248,19.896 L25.964,19.896 L25.973,19.900 L25.973,15.631 L25.966,15.631 L25.966,15.627 L25.595,15.627 C22.767,15.627 20.114,13.353 20.114,10.558 C20.114,7.765 22.767,5.491 25.595,5.491 L60.368,5.491 C63.197,5.491 65.498,7.765 65.498,10.558 C65.498,13.353 63.197,15.627 60.368,15.627 ZM55.208,48.776 C56.014,48.776 56.670,48.129 56.670,47.332 L56.670,8.434 L50.821,8.434 L50.821,48.776 L55.208,48.776 ZM25.964,49.723 L25.964,35.300 L25.964,34.050 L25.911,22.784 L24.248,22.784 C22.798,22.784 21.617,23.951 21.617,25.384 L21.634,45.300 C21.634,45.343 21.630,45.418 21.626,45.461 C21.557,46.207 20.925,46.775 20.169,46.775 C20.162,46.775 20.155,46.775 20.149,46.775 C19.384,46.764 18.757,46.174 18.710,45.421 C18.699,45.263 18.693,45.163 18.693,45.061 L18.693,34.110 C18.343,34.107 17.932,34.101 17.378,34.106 L16.937,34.106 C15.487,34.106 14.306,35.272 14.306,36.705 L14.306,50.316 C14.306,50.406 14.297,50.495 14.280,50.582 C14.142,51.316 13.443,51.830 12.707,51.766 C11.954,51.696 11.378,51.085 11.378,50.339 L11.378,43.826 L11.066,43.809 C9.627,43.809 8.446,44.975 8.446,46.408 L8.448,48.500 C8.448,48.554 8.446,48.873 8.446,49.612 C8.447,49.622 8.447,49.622 8.447,49.630 C8.447,49.633 8.447,49.636 8.446,49.638 C8.478,55.316 7.148,71.930 25.019,72.597 C29.461,72.681 31.281,71.899 33.041,70.172 C35.718,67.545 36.247,66.166 36.217,58.873 C36.258,56.733 36.254,54.803 36.243,53.475 C36.233,52.329 36.217,51.631 36.217,51.631 C36.217,51.628 36.215,51.626 36.215,51.624 C36.215,51.621 36.217,51.619 36.217,51.617 L36.217,35.300 C36.217,33.168 34.459,31.432 32.300,31.432 C30.142,31.432 28.888,33.168 28.888,35.300 L28.888,49.723 L28.888,51.785 C28.888,52.583 28.234,53.229 27.426,53.229 C26.618,53.229 25.964,52.583 25.964,51.785 L25.964,49.723 ZM28.897,21.871 L28.897,21.871 L28.897,22.133 L28.897,29.551 C29.392,29.227 29.939,28.972 30.530,28.799 C31.581,28.456 32.180,28.486 33.247,28.638 C33.867,28.724 34.448,28.915 35.004,29.153 C36.942,30.110 37.085,30.452 38.220,31.955 C38.799,32.940 39.141,34.078 39.141,35.300 L39.141,35.364 C39.093,36.724 39.109,36.996 39.141,38.155 L39.141,48.776 L47.915,48.776 L47.915,8.434 L42.542,8.434 C43.111,8.632 43.524,9.153 43.524,9.782 L43.530,14.056 C43.530,14.854 42.876,15.500 42.069,15.500 L39.157,15.500 C38.350,15.500 37.695,14.854 37.695,14.056 L37.688,9.782 C37.688,9.153 38.101,8.632 38.669,8.434 L28.897,8.434 L28.897,8.438 L28.905,8.438 L28.903,15.631 L28.897,15.631 L28.897,21.871 ZM24.870,8.434 C23.682,8.434 22.717,9.388 22.717,10.561 C22.717,11.734 23.682,12.689 24.870,12.689 L25.966,12.689 L25.966,8.438 L25.970,8.438 L25.973,8.438 L25.973,8.434 L24.870,8.434 ZM60.803,8.434 L59.594,8.434 L59.594,8.438 L59.597,8.438 L59.597,12.689 L60.803,12.689 C61.992,12.689 62.957,11.734 62.957,10.561 C62.957,9.388 61.992,8.434 60.803,8.434 ZM42.026,23.641 C42.792,23.641 43.413,24.255 43.413,25.012 L43.413,43.492 C43.413,44.249 42.792,44.863 42.026,44.863 C41.259,44.863 40.638,44.249 40.638,43.492 L40.638,25.012 C40.638,24.255 41.259,23.641 42.026,23.641 ZM8.454,49.497 C8.454,49.507 8.452,49.518 8.452,49.529 C8.453,49.380 8.454,49.230 8.454,49.497 ZM8.447,49.630 C8.450,49.597 8.451,49.563 8.452,49.529 C8.451,49.656 8.449,49.772 8.447,49.630 ZM39.199,58.942 C39.196,58.601 39.191,57.566 39.186,56.055 C39.221,53.842 39.187,57.482 39.199,58.942 Z" class="cls-1"/>
</svg>
