<svg xmlns="http://www.w3.org/2000/svg" xmlns:xlink="http://www.w3.org/1999/xlink" preserveAspectRatio="xMidYMid" width="73" height="78" viewBox="0 0 73 78">
  <defs>
    <style>
      .cls-1 {
        fill: #fff;
        filter: url(#filter-chain-1);
        fill-rule: evenodd;
      }
    </style>

    <filter id="filter-chain-1" filterUnits="userSpaceOnUse">
      <feOffset dy="2" in="SourceAlpha"/>
      <feGaussianBlur stdDeviation="2.449" result="dropBlur"/>
      <feFlood flood-opacity="0.22"/>
      <feComposite operator="in" in2="dropBlur" result="dropShadowComp"/>
      <feComposite in="SourceGraphic" result="shadowed"/>
      <feFlood flood-color="#9c3"/>
      <feComposite operator="in" in2="SourceGraphic"/>
      <feBlend in2="shadowed" result="solidFill"/>
      <feOffset dy="-2" in="SourceAlpha"/>
      <feGaussianBlur result="innerShadowBlur"/>
      <feFlood flood-opacity="0.2"/>
      <feComposite operator="out" in2="innerShadowBlur"/>
      <feComposite operator="in" in2="SourceAlpha"/>
      <feBlend in2="solidFill" result="innerShadow"/>
    </filter>
  </defs>
  <path d="M67.132,69.474 C67.028,70.956 65.826,72.135 64.319,72.135 C64.313,72.135 64.301,72.134 64.293,72.134 L64.292,72.135 L8.618,72.135 L8.583,72.103 C7.216,72.022 6.146,70.988 5.966,69.649 L5.817,69.509 L5.817,18.381 C5.817,17.650 6.312,17.349 6.979,17.260 L7.453,17.020 L7.453,8.525 C7.453,8.353 7.501,8.196 7.550,8.041 C7.435,7.723 7.418,7.369 7.521,7.027 C7.724,6.342 8.353,5.873 9.068,5.873 L63.960,5.874 C63.964,5.874 63.967,5.875 63.971,5.875 C63.976,5.875 63.979,5.873 63.984,5.873 C64.021,5.873 64.051,5.891 64.087,5.894 C64.235,5.906 64.378,5.930 64.513,5.980 C64.614,6.015 64.701,6.067 64.792,6.121 C64.851,6.156 64.907,6.191 64.960,6.234 C65.061,6.313 65.148,6.396 65.227,6.496 C65.248,6.523 65.265,6.553 65.285,6.582 C65.468,6.844 65.599,7.145 65.599,7.489 L65.599,17.023 L66.050,17.261 C66.712,17.351 67.203,17.653 67.203,18.381 L67.203,69.408 L67.132,69.474 ZM62.369,10.381 L58.084,13.059 L62.369,15.319 L62.369,10.381 ZM9.048,20.452 L9.048,68.903 L63.973,68.903 L63.973,20.452 L9.048,20.452 ZM10.683,15.382 L15.374,13.003 L10.683,10.288 L10.683,15.382 ZM13.776,9.105 L18.564,11.693 C19.026,11.996 19.302,12.513 19.294,13.066 C19.286,13.619 18.998,14.129 18.527,14.420 L13.127,17.220 L60.181,17.220 L55.270,14.514 C54.834,14.227 54.562,13.746 54.543,13.224 C54.523,12.700 54.758,12.201 55.173,11.881 L59.512,9.106 L13.776,9.105 ZM48.046,32.376 C46.865,38.775 42.233,43.014 35.967,43.014 C29.694,43.014 25.059,38.767 23.882,32.358 C22.916,31.835 22.250,30.823 22.250,29.648 C22.250,27.942 23.637,26.554 25.340,26.554 C27.045,26.554 28.433,27.942 28.433,29.648 C28.433,30.667 27.932,31.565 27.170,32.129 C28.074,36.276 30.868,39.782 35.967,39.782 C41.074,39.782 43.867,36.264 44.767,32.108 C44.020,31.543 43.529,30.655 43.529,29.648 C43.529,27.942 44.915,26.554 46.620,26.554 C48.325,26.554 49.712,27.942 49.712,29.648 C49.712,30.837 49.031,31.859 48.046,32.376 ZM9.068,5.873 L9.068,5.873 L8.361,5.873 L9.068,5.873 Z" class="cls-1"/>
</svg>
