<svg xmlns="http://www.w3.org/2000/svg" xmlns:xlink="http://www.w3.org/1999/xlink" preserveAspectRatio="xMidYMid" width="16" height="16" viewBox="0 0 16 16">
  <defs>
    <style>
      .cls-1 {
        fill: #7e7f84;
        filter: url(#color-overlay-1);
        fill-rule: evenodd;
      }
    </style>

    <filter id="color-overlay-1" filterUnits="userSpaceOnUse">
      <feFlood/>
      <feComposite operator="in" in2="SourceGraphic"/>
      <feBlend in2="SourceGraphic" result="solidFill"/>
    </filter>
  </defs>
  <path d="M15.937,0.568 L15.927,4.172 C15.923,4.374 15.756,4.494 15.554,4.499 L15.298,4.499 C15.097,4.503 14.937,4.328 14.942,4.126 L14.955,1.706 L10.668,5.975 C10.474,6.170 10.158,6.170 9.963,5.975 C9.769,5.780 9.769,5.464 9.963,5.269 L14.235,1.015 L11.880,1.009 C11.678,1.013 11.492,0.874 11.461,0.636 L11.461,0.380 C11.466,0.178 11.633,0.011 11.834,0.007 L15.409,0.022 C15.412,0.022 15.415,0.021 15.419,0.021 L15.601,0.016 C15.702,0.014 15.792,0.053 15.856,0.119 C15.922,0.183 15.946,0.274 15.943,0.375 L15.924,0.558 C15.924,0.561 15.937,0.564 15.937,0.568 ZM11.851,9.770 C12.040,9.770 12.214,9.813 12.356,9.900 C12.683,10.100 15.353,11.879 15.597,12.050 C15.998,12.332 16.159,13.026 15.718,13.657 C15.702,13.679 14.023,16.000 13.068,16.000 L13.046,16.000 C10.318,15.912 7.125,13.266 4.926,11.062 C2.726,8.858 0.086,5.660 -0.001,2.938 C-0.032,1.969 2.314,0.265 2.337,0.249 C2.580,0.079 2.860,-0.001 3.124,-0.001 C3.458,-0.001 3.766,0.128 3.938,0.367 C4.121,0.619 5.888,3.305 6.083,3.612 C6.290,3.938 6.261,4.421 6.006,4.905 C5.871,5.162 5.429,5.941 5.212,6.322 C5.449,6.660 6.058,7.456 7.292,8.692 C8.533,9.937 9.321,10.541 9.657,10.777 C10.037,10.559 10.816,10.115 11.073,9.980 C11.337,9.841 11.607,9.770 11.851,9.770 ZM9.602,11.959 L9.084,11.594 C8.700,11.324 7.866,10.680 6.586,9.398 C5.312,8.121 4.667,7.282 4.396,6.897 L4.033,6.378 L4.346,5.827 C4.749,5.120 5.032,4.614 5.123,4.441 C5.209,4.278 5.224,4.164 5.223,4.119 C4.950,3.692 3.445,1.410 3.165,1.002 C3.154,0.999 3.140,0.998 3.124,0.998 C3.050,0.998 2.970,1.024 2.906,1.068 C2.038,1.697 1.124,2.602 0.998,2.955 C1.084,4.821 2.727,7.447 5.630,10.356 C8.534,13.265 11.158,14.911 13.027,14.999 C13.378,14.868 14.276,13.952 14.908,13.075 C14.984,12.966 14.990,12.879 14.983,12.839 C14.573,12.557 12.245,11.009 11.863,10.769 C11.860,10.768 11.856,10.768 11.851,10.768 C11.819,10.768 11.705,10.775 11.537,10.864 C11.327,10.974 10.684,11.339 10.151,11.644 L9.602,11.959 Z" class="cls-1"/>
</svg>
