<svg xmlns="http://www.w3.org/2000/svg" xmlns:xlink="http://www.w3.org/1999/xlink" preserveAspectRatio="xMidYMid" width="90" height="76" viewBox="0 0 90 76">
  <defs>
    <style>
      .cls-1 {
        fill: #fff;
        filter: url(#filter-chain-1);
        fill-rule: evenodd;
      }
    </style>

    <filter id="filter-chain-1" filterUnits="userSpaceOnUse">
      <feOffset dy="2" in="SourceAlpha"/>
      <feGaussianBlur stdDeviation="2.449" result="dropBlur"/>
      <feFlood flood-opacity="0.22"/>
      <feComposite operator="in" in2="dropBlur" result="dropShadowComp"/>
      <feComposite in="SourceGraphic" result="shadowed"/>
      <feFlood flood-color="#9c3"/>
      <feComposite operator="in" in2="SourceGraphic"/>
      <feBlend in2="shadowed" result="solidFill"/>
      <feOffset dy="-2" in="SourceAlpha"/>
      <feGaussianBlur result="innerShadowBlur"/>
      <feFlood flood-opacity="0.2"/>
      <feComposite operator="out" in2="innerShadowBlur"/>
      <feComposite operator="in" in2="SourceAlpha"/>
      <feBlend in2="solidFill" result="innerShadow"/>
    </filter>
  </defs>
  <path d="M83.692,18.510 C81.950,22.153 74.255,39.700 73.208,41.325 C73.084,41.517 72.973,41.706 72.865,41.887 C71.844,43.617 70.766,44.940 67.037,44.940 L31.512,44.940 C32.258,47.174 33.806,49.932 37.032,49.932 L67.784,49.932 C68.695,49.932 69.431,50.661 69.431,51.559 C69.431,52.457 68.695,53.186 67.784,53.186 L37.032,53.186 C32.468,53.186 29.137,49.656 27.892,44.246 C27.207,41.263 18.883,13.752 18.288,11.598 C17.648,10.228 16.164,9.244 14.721,9.244 L7.148,9.244 C6.239,9.244 5.501,8.515 5.501,7.617 C5.501,6.719 6.239,5.990 7.148,5.990 L14.721,5.990 C17.544,5.990 20.211,6.140 21.357,8.783 C21.388,8.852 21.413,8.924 21.433,8.996 C21.760,10.178 28.660,34.351 30.630,41.687 L67.037,41.687 C69.171,41.687 69.385,41.324 70.020,40.247 C70.148,40.031 70.280,39.807 70.428,39.578 C71.406,38.062 79.042,20.617 80.668,17.228 C81.347,15.474 81.223,14.519 81.037,14.248 C80.915,14.074 80.522,13.970 79.983,13.970 C76.416,14.022 31.197,13.972 29.626,13.970 C28.715,13.968 27.979,13.239 27.980,12.341 C27.982,11.443 28.719,10.717 29.627,10.717 L29.629,10.717 C30.015,10.717 76.394,10.772 79.958,10.717 C82.127,10.717 83.216,11.636 83.752,12.408 C84.739,13.828 84.718,15.881 83.692,18.510 ZM36.160,54.797 C40.401,54.797 43.852,58.204 43.852,62.394 C43.852,66.583 40.401,69.993 36.160,69.993 C31.919,69.993 28.470,66.583 28.470,62.394 C28.470,58.204 31.919,54.797 36.160,54.797 ZM36.159,66.869 C38.657,66.869 40.689,64.861 40.689,62.393 C40.689,59.927 38.657,57.920 36.159,57.920 C33.664,57.920 31.633,59.927 31.633,62.393 C31.633,64.861 33.664,66.869 36.159,66.869 ZM67.451,54.797 C71.692,54.797 75.144,58.204 75.144,62.394 C75.144,66.583 71.692,69.993 67.451,69.993 C63.210,69.993 59.761,66.583 59.761,62.394 C59.761,58.204 63.210,54.797 67.451,54.797 ZM67.451,66.869 C69.949,66.869 71.980,64.861 71.980,62.393 C71.980,59.927 69.949,57.920 67.451,57.920 C64.955,57.920 62.924,59.927 62.924,62.393 C62.924,64.861 64.955,66.869 67.451,66.869 Z" class="cls-1"/>
</svg>
