<svg xmlns="http://www.w3.org/2000/svg" xmlns:xlink="http://www.w3.org/1999/xlink" preserveAspectRatio="xMidYMid" width="58" height="80" viewBox="0 0 58 80">
  <defs>
    <style>
      .cls-1 {
        fill: #fff;
        filter: url(#filter-chain-1);
        fill-rule: evenodd;
      }
    </style>

    <filter id="filter-chain-1" filterUnits="userSpaceOnUse">
      <feOffset dy="2" in="SourceAlpha"/>
      <feGaussianBlur stdDeviation="2.449" result="dropBlur"/>
      <feFlood flood-opacity="0.22"/>
      <feComposite operator="in" in2="dropBlur" result="dropShadowComp"/>
      <feComposite in="SourceGraphic" result="shadowed"/>
      <feFlood flood-color="#9c3"/>
      <feComposite operator="in" in2="SourceGraphic"/>
      <feBlend in2="shadowed" result="solidFill"/>
      <feOffset dy="-2" in="SourceAlpha"/>
      <feGaussianBlur result="innerShadowBlur"/>
      <feFlood flood-opacity="0.2"/>
      <feComposite operator="out" in2="innerShadowBlur"/>
      <feComposite operator="in" in2="SourceAlpha"/>
      <feBlend in2="solidFill" result="innerShadow"/>
    </filter>
  </defs>
  <path d="M51.165,54.086 L35.553,54.086 C35.558,56.198 35.564,55.414 35.569,56.805 C35.561,57.345 35.548,58.350 35.529,59.389 C35.559,66.864 34.968,68.472 31.925,71.516 C29.878,73.566 27.834,74.488 23.258,74.488 C23.128,74.488 22.998,74.487 22.866,74.486 C3.977,73.767 5.533,55.418 5.533,50.843 C5.533,50.802 5.533,50.762 5.533,50.722 L5.533,50.721 L5.533,48.026 C5.533,45.272 7.756,43.032 10.490,43.032 L10.761,43.048 L10.761,39.195 C10.761,36.442 12.984,34.201 15.718,34.201 L16.074,34.201 C16.599,34.211 16.951,34.203 17.285,34.206 L17.285,28.893 C17.285,26.139 19.507,23.899 22.241,23.899 L23.772,23.899 L23.772,6.813 C23.772,6.087 24.356,5.499 25.077,5.499 L51.165,5.499 C51.886,5.499 52.470,6.087 52.470,6.813 L52.470,52.772 C52.470,53.498 51.886,54.086 51.165,54.086 ZM35.159,32.525 C35.938,32.525 36.336,31.761 36.656,30.696 L33.524,30.696 C33.663,31.822 34.282,32.525 35.159,32.525 ZM25.077,54.233 C24.356,54.233 23.772,53.645 23.772,52.919 L23.772,51.042 L23.772,37.917 L23.772,36.779 L23.725,26.527 L22.241,26.527 C20.947,26.527 19.893,27.589 19.893,28.893 L19.909,47.017 C19.909,47.057 19.905,47.125 19.901,47.164 C19.840,47.842 19.276,48.359 18.602,48.359 C18.595,48.359 18.589,48.359 18.584,48.359 C17.901,48.350 17.342,47.813 17.300,47.127 C17.290,46.984 17.285,46.892 17.285,46.800 L17.285,36.834 C16.972,36.831 16.605,36.826 16.111,36.830 L15.718,36.830 C14.423,36.830 13.370,37.891 13.370,39.195 L13.370,51.582 C13.370,51.664 13.362,51.745 13.347,51.824 C13.224,52.492 12.601,52.960 11.943,52.901 C11.272,52.838 10.757,52.282 10.757,51.603 L10.757,45.676 L10.479,45.660 C9.195,45.660 8.142,46.722 8.142,48.026 L8.143,49.929 C8.143,49.979 8.142,50.269 8.142,50.941 C8.142,50.951 8.142,50.950 8.142,50.958 C8.142,50.960 8.142,50.963 8.142,50.965 C8.170,56.132 6.983,71.251 22.929,71.858 C26.892,71.934 28.516,71.223 30.087,69.651 C32.475,67.260 32.947,66.006 32.920,59.369 C32.939,58.343 32.952,57.395 32.960,56.825 C32.956,55.550 32.950,56.519 32.945,54.622 C32.941,54.578 32.920,54.540 32.920,54.495 L32.920,52.779 C32.920,52.776 32.918,52.774 32.918,52.772 C32.918,52.770 32.920,52.768 32.920,52.766 L32.920,37.917 C32.920,35.977 31.352,34.397 29.426,34.397 C27.500,34.397 26.381,35.977 26.381,37.917 L26.381,51.042 L26.381,52.919 C26.381,53.645 25.798,54.233 25.077,54.233 ZM49.861,12.186 C49.827,12.187 49.797,12.202 49.762,12.202 C47.642,12.202 45.924,10.471 45.924,8.335 C46.028,8.258 46.134,8.196 46.239,8.127 L29.912,8.127 C30.017,8.196 30.123,8.258 30.228,8.335 C30.228,10.471 28.509,12.202 26.389,12.202 C26.386,12.202 26.384,12.201 26.381,12.201 L26.381,32.689 C26.825,32.392 27.316,32.160 27.846,32.001 C28.784,31.689 29.318,31.716 30.270,31.855 C30.823,31.933 31.342,32.107 31.838,32.323 C31.651,31.834 31.519,31.294 31.468,30.696 L29.633,30.696 L29.633,29.088 L31.489,29.088 C31.668,27.460 32.306,26.093 33.304,25.047 L35.040,26.374 C34.282,27.138 33.823,28.103 33.623,29.088 L37.075,29.088 C37.613,26.997 38.391,24.726 41.065,24.726 C43.100,24.726 44.895,26.073 45.155,29.088 L46.950,29.088 L46.950,30.696 L45.155,30.696 C44.995,32.766 44.177,34.314 43.080,35.380 L41.264,34.053 C42.082,33.309 42.840,32.143 43.060,30.696 L39.189,30.696 C38.671,32.766 37.933,34.937 35.339,34.937 C35.122,34.937 34.914,34.909 34.708,34.873 C35.224,35.770 35.529,36.805 35.529,37.917 L35.529,37.975 C35.487,39.213 35.501,39.461 35.529,40.515 L35.529,51.458 L45.943,51.458 C46.045,49.413 47.708,47.783 49.762,47.783 C49.797,47.783 49.827,47.799 49.861,47.800 L49.861,12.186 ZM39.608,29.088 L43.080,29.088 C42.880,27.701 42.062,27.138 41.284,27.138 C40.386,27.138 39.948,27.982 39.608,29.088 ZM8.148,50.836 C8.148,50.846 8.147,50.856 8.147,50.866 C8.148,50.730 8.148,50.593 8.148,50.836 ZM8.142,50.958 C8.145,50.927 8.146,50.896 8.147,50.866 C8.146,50.981 8.144,51.087 8.142,50.958 ZM35.581,59.431 C35.578,59.122 35.574,58.179 35.569,56.805 C35.572,56.603 35.575,56.457 35.577,56.411 C35.583,56.248 35.585,59.917 35.581,59.431 Z" class="cls-1"/>
</svg>
