<svg xmlns="http://www.w3.org/2000/svg" xmlns:xlink="http://www.w3.org/1999/xlink" preserveAspectRatio="xMidYMid" width="25" height="23" viewBox="0 0 25 23">
  <defs>
    <style>
      .cls-1 {
        fill: #7e7f84;
        filter: url(#color-overlay-1);
        fill-rule: evenodd;
      }
    </style>

    <filter id="color-overlay-1" filterUnits="userSpaceOnUse">
      <feFlood/>
      <feComposite operator="in" in2="SourceGraphic"/>
      <feBlend in2="SourceGraphic" result="solidFill"/>
    </filter>
  </defs>
  <path d="M7.006,1.615 C7.770,1.615 9.151,1.988 11.391,4.242 L12.502,5.359 L13.596,4.224 C15.152,2.610 16.807,1.607 17.916,1.607 C19.411,1.607 20.590,2.129 21.739,3.301 C22.823,4.405 23.419,5.872 23.419,7.434 C23.420,8.996 22.823,10.465 21.729,11.580 C21.640,11.673 16.932,16.862 12.987,21.211 C12.802,21.391 12.589,21.418 12.476,21.418 C12.365,21.418 12.155,21.392 11.970,21.217 C11.009,20.125 4.042,12.211 3.231,11.384 C2.147,10.279 1.551,8.810 1.551,7.248 C1.551,5.687 2.148,4.220 3.232,3.115 C4.287,2.039 5.521,1.615 7.006,1.615 M7.006,0.023 C5.142,0.023 3.499,0.592 2.131,1.988 C-0.721,4.893 -0.721,9.604 2.131,12.511 C2.944,13.342 10.846,22.321 10.846,22.321 C11.296,22.781 11.887,23.010 12.476,23.010 C13.066,23.010 13.656,22.781 14.105,22.321 C14.105,22.321 22.748,12.792 22.840,12.697 C25.691,9.790 25.691,5.079 22.840,2.173 C21.425,0.731 19.844,0.015 17.916,0.015 C16.074,0.015 14.019,1.515 12.485,3.107 C10.902,1.515 8.911,0.023 7.006,0.023 L7.006,0.023 Z" class="cls-1"/>
</svg>
