<svg xmlns="http://www.w3.org/2000/svg" xmlns:xlink="http://www.w3.org/1999/xlink" preserveAspectRatio="xMidYMid" width="27" height="27" viewBox="0 0 27 27">
  <defs>
    <style>
      .cls-1 {
        fill: #7e7f84;
        filter: url(#color-overlay-1);
        fill-rule: evenodd;
      }
    </style>

    <filter id="color-overlay-1" filterUnits="userSpaceOnUse">
      <feFlood/>
      <feComposite operator="in" in2="SourceGraphic"/>
      <feBlend in2="SourceGraphic" result="solidFill"/>
    </filter>
  </defs>
  <path d="M26.943,8.085 L22.911,20.321 C22.791,20.665 22.474,20.894 22.119,20.894 L10.680,20.894 C10.303,20.894 9.972,20.636 9.870,20.263 L5.187,2.578 C4.948,1.729 4.598,1.729 4.483,1.729 L0.854,1.729 C0.389,1.729 0.012,1.342 0.012,0.864 C0.012,0.386 0.389,-0.001 0.854,-0.001 L4.483,-0.001 C5.004,-0.001 6.272,0.204 6.806,2.104 L8.167,6.928 L10.341,6.928 L15.681,2.171 C16.343,1.490 17.417,1.491 18.078,2.171 L23.510,6.928 L26.151,6.928 C26.425,6.928 26.681,7.065 26.839,7.295 C26.996,7.525 27.035,7.820 26.943,8.085 ZM16.879,3.402 L12.853,6.928 L20.905,6.928 L16.879,3.402 ZM8.640,8.657 L11.318,19.164 L21.527,19.164 L24.954,8.657 L8.640,8.657 ZM12.231,22.645 C13.401,22.645 14.350,23.620 14.350,24.823 C14.350,26.025 13.401,26.999 12.231,26.999 C11.061,26.999 10.113,26.025 10.113,24.823 C10.113,23.620 11.061,22.645 12.231,22.645 ZM19.858,22.645 C21.028,22.645 21.976,23.620 21.976,24.823 C21.976,26.025 21.028,26.999 19.858,26.999 C18.688,26.999 17.739,26.025 17.739,24.823 C17.739,23.620 18.688,22.645 19.858,22.645 Z" class="cls-1"/>
</svg>
